<?xml version="1.0" standalone="no"?><!DOCTYPE svg PUBLIC "-//W3C//DTD SVG 1.1//EN" "http://www.w3.org/Graphics/SVG/1.1/DTD/svg11.dtd"><svg t="1715049642622" class="icon" viewBox="0 0 1024 1024" version="1.1" xmlns="http://www.w3.org/2000/svg" p-id="2958" xmlns:xlink="http://www.w3.org/1999/xlink" width="200" height="200"><path d="M876.8 512l-320 313.6c-6.4 6.4-12.8 6.4-19.2 6.4-6.4 0-19.2-6.4-25.6-12.8-12.8-12.8-12.8-32 0-44.8L787.2 512 512 249.6c-12.8-12.8-12.8-38.4 0-44.8 12.8-12.8 32-12.8 44.8-6.4l320 313.6zM211.2 198.4c-6.4-6.4-32-6.4-44.8 6.4s-12.8 32 0 44.8L441.6 512l-268.8 262.4c-12.8 12.8-12.8 32 0 44.8 0 6.4 12.8 12.8 19.2 12.8 6.4 0 19.2 0 19.2-6.4l320-313.6-320-313.6z" fill="" p-id="2959"></path></svg>