<?xml version="1.0" standalone="no"?><!DOCTYPE svg PUBLIC "-//W3C//DTD SVG 1.1//EN" "http://www.w3.org/Graphics/SVG/1.1/DTD/svg11.dtd"><svg t="1718777836883" class="icon" viewBox="0 0 1024 1024" version="1.1" xmlns="http://www.w3.org/2000/svg" p-id="13431" xmlns:xlink="http://www.w3.org/1999/xlink" width="256" height="256"><path d="M811.101091 651.636364h-179.246546c-11.031273 0-20.945455-7.540364-24.948363-19.083637a32.349091 32.349091 0 0 1 6.842182-32.861091l118.690909-121.064727h-84.712728c-14.801455 0-26.763636-13.358545-26.763636-29.882182 0-16.523636 11.962182-29.835636 26.717091-29.835636h153.739636c11.031273 0 20.945455 7.540364 24.901819 19.083636a32.349091 32.349091 0 0 1-6.842182 32.861091l-118.784 121.064727h110.405818c14.801455 0 26.717091 13.358545 26.717091 29.882182 0 16.523636-12.008727 29.835636-26.717091 29.835637z m95.976727-325.818182h-92.020363c-9.821091 0-18.618182-6.609455-22.155637-16.709818a27.927273 27.927273 0 0 1 6.050909-28.718546l41.890909-42.030545h-17.687272c-13.172364 0-23.738182-11.636364-23.738182-26.065455 0-14.429091 10.565818-26.112 23.738182-26.112h78.941091c9.774545 0 18.618182 6.609455 22.155636 16.709818a27.927273 27.927273 0 0 1-6.050909 28.718546l-41.890909 42.030545h30.859636c13.125818 0 23.738182 11.636364 23.738182 26.065455 0 14.429091-10.752 26.112-23.831273 26.112z" fill="#7E70D1" p-id="13432"></path><path d="M906.007273 744.354909c-6.283636-11.310545-19.874909-17.687273-34.257455-15.732364-176.360727 27.415273-341.922909-38.586182-411.927273-164.631272-70.050909-125.905455-31.837091-287.930182 95.697455-403.456a28.113455 28.113455 0 0 0 6.050909-34.769455c-6.516364-11.357091-20.061091-17.687273-34.443636-15.825454a603.415273 603.415273 0 0 0-165.562182 50.781091c-246.877091 116.363636-358.772364 370.548364-249.483636 567.016727 53.480727 95.883636 150.667636 163.746909 273.780363 190.743273 38.167273 8.192 77.451636 12.520727 117.294546 12.520727 86.574545 0 174.638545-20.107636 255.208727-57.902546a572.043636 572.043636 0 0 0 141.591273-93.975272 27.787636 27.787636 0 0 0 6.050909-34.769455zM298.914909 329.774545c-73.541818 55.063273-115.991273 138.891636-115.991273 229.376 0 13.172364 1.070545 26.251636 2.792728 39.424 1.536 10.705455-6.888727 20.852364-18.571637 22.248728h-2.792727c-10.798545 0-20.107636-7.121455-21.410909-17.268364a304.686545 304.686545 0 0 1-3.211636-44.404364c0-102.725818 48.267636-197.445818 131.956363-260.282181a23.133091 23.133091 0 0 1 30.580364 2.792727 19.037091 19.037091 0 0 1-3.351273 28.113454z" fill="#7E70D1" p-id="13433"></path></svg>