<?xml version="1.0" standalone="no"?><!DOCTYPE svg PUBLIC "-//W3C//DTD SVG 1.1//EN" "http://www.w3.org/Graphics/SVG/1.1/DTD/svg11.dtd"><svg t="1718776613853" class="icon" viewBox="0 0 1024 1024" version="1.1" xmlns="http://www.w3.org/2000/svg" p-id="10010" xmlns:xlink="http://www.w3.org/1999/xlink" width="256" height="256"><path d="M426.666667 170.666667m-85.333334 0a85.333333 85.333333 0 1 0 170.666667 0 85.333333 85.333333 0 1 0-170.666667 0Z" fill="#1296db" p-id="10011"></path><path d="M896 704V234.666667c0-36.266667-27.733333-64-64-64s-64 27.733333-64 64v469.333333c-25.6 19.2-42.666667 49.066667-42.666667 85.333333 0 59.733333 46.933333 106.666667 106.666667 106.666667s106.666667-46.933333 106.666667-106.666667c0-34.133333-17.066667-66.133333-42.666667-85.333333z m-85.333333-469.333333c0-12.8 8.533333-21.333333 21.333333-21.333334s21.333333 8.533333 21.333333 21.333334v234.666666h-42.666666V234.666667zM576 285.866667H277.333333c-19.2 0-34.133333 14.933333-34.133333 34.133333v320c0 19.2 14.933333 34.133333 34.133333 34.133333 19.2 0 34.133333-14.933333 34.133334-32l8.533333-262.4c0-2.133333 2.133333-4.266667 4.266667-4.266666s4.266667 2.133333 4.266666 4.266666V917.333333c0 19.2 14.933333 34.133333 34.133334 34.133334 19.2 0 34.133333-14.933333 34.133333-34.133334V640c0-4.266667 4.266667-8.533333 8.533333-8.533333h42.666667c4.266667 0 8.533333 4.266667 8.533333 8.533333v277.333333c0 19.2 14.933333 34.133333 34.133334 34.133334 19.2 0 34.133333-14.933333 34.133333-34.133334V379.733333c0-2.133333 2.133333-4.266667 4.266667-4.266666s4.266667 2.133333 4.266666 4.266666l8.533334 262.4c0 19.2 14.933333 32 34.133333 32 19.2 0 34.133333-14.933333 34.133333-34.133333V320c0-19.2-14.933333-34.133333-34.133333-34.133333z" fill="#1296db" p-id="10012"></path></svg>