<?xml version="1.0" standalone="no"?><!DOCTYPE svg PUBLIC "-//W3C//DTD SVG 1.1//EN" "http://www.w3.org/Graphics/SVG/1.1/DTD/svg11.dtd"><svg t="1718936955507" class="icon" viewBox="0 0 1024 1024" version="1.1" xmlns="http://www.w3.org/2000/svg" p-id="2537" xmlns:xlink="http://www.w3.org/1999/xlink" width="256" height="256"><path d="M693.656566 324.654545c8.274747 5.947475 9.826263 17.066667 4.00808 25.082829-5.559596 7.886869-17.066667 9.826263-25.082828 3.749495-35.29697-25.470707-77.317172-36.331313-120.50101-36.072728-47.838384 0.258586-97.357576 14.222222-138.214141 38.270707-41.244444 23.40202-77.963636 59.086869-102.4 101.236364-21.462626 36.977778-32.969697 79.256566-28.185859 122.828283 0.905051 9.826263-6.335354 18.488889-16.161616 19.523232-9.826263 1.292929-18.747475-6.206061-19.523232-16.161616-5.042424-51.2 7.886869-100.719192 32.969697-144.549495 27.79798-47.191919 69.042424-87.40202 115.329292-113.907071 46.80404-27.151515 102.012121-42.925253 156.185859-43.183838 50.294949 0.129293 99.814141 13.058586 141.575758 43.183838z m175.838383 129.551516c6.852525 66.973737-9.309091 136.274747-44.218181 198.723232-33.745455 59.991919-85.721212 113.260606-151.919192 151.789899-66.844444 38.4-139.248485 56.371717-207.903031 55.59596-71.886869-1.292929-140.024242-22.367677-194.844444-61.672728-4.525253-3.620202-9.309091-5.947475-14.092929-7.240404v0.258586c-4.913131-1.292929-10.343434-1.680808-15.903031-1.034343l-2.715151 0.258585c-19.523232 1.939394-39.563636-1.422222-57.018182-10.214141-18.10101-8.921212-33.616162-22.755556-44.218182-41.632323-10.60202-18.488889-15.256566-39.046465-13.963636-59.086869 1.422222-20.428283 8.921212-40.59798 21.074747-56.759596 3.620202-4.654545 5.947475-9.309091 7.369697-13.963636 1.292929-5.171717 1.680808-10.214141 1.29293-15.90303-7.240404-67.10303 8.533333-137.050505 43.830303-199.628283 33.357576-59.991919 85.20404-113.519192 151.919192-152.177778 66.327273-38.270707 138.731313-56.371717 207.256565-55.725253 71.628283 0.905051 139.636364 22.109091 194.19798 61.155556 4.913131 3.361616 9.826263 5.947475 14.868687 6.852525 4.654545 1.292929 10.214141 1.422222 15.90303 0.387879 20.816162-2.973737 42.537374 0.258586 61.414142 9.309091 18.747475 8.533333 34.391919 23.143434 45.511111 42.020202v-0.258586c10.860606 19.264646 15.256566 40.210101 13.963636 60.509091-1.939394 20.816162-9.826263 41.244444-23.143434 57.793939-3.620202 4.525253-6.206061 9.309091-7.49899 14.222223l-0.387879 0.90505c-0.775758 5.042424-1.422222 10.084848-0.775758 15.515152z m-96.452525 169.373737c29.090909-51.587879 42.537374-108.864646 36.977778-163.426263-1.292929-12.541414-0.387879-25.082828 2.715152-36.977777l0.646464-1.939394c3.620202-12.541414 9.567677-24.177778 18.10101-34.39192v-0.387878c5.947475-7.240404 9.567677-15.773737 9.955556-25.082829 0.646465-8.662626-1.292929-17.842424-5.559596-25.470707v-0.387878c-4.913131-8.145455-11.894949-14.222222-19.781818-18.101011-7.886869-4.008081-17.583838-5.30101-26.634344-4.00808-13.446465 2.19798-26.375758 1.680808-39.30505-1.29293-12.541414-2.973737-24.694949-8.921212-35.555556-16.549495-44.864646-31.935354-100.719192-49.260606-159.80606-49.90707-58.440404-0.387879-120.113131 14.868687-177.002021 47.838383v-0.387878 0.387878c-56.888889 32.711111-101.107071 78.480808-129.422222 129.680809-29.478788 51.587879-42.408081 108.993939-36.848485 163.814141 1.680808 13.187879 0.905051 25.858586-2.715151 38.270707-3.361616 11.894949-9.309091 23.40202-16.808081 33.745455l-0.387879 0.258585c-5.042424 7.240404-8.533333 15.773737-8.921212 24.436364-0.905051 8.662626 1.034343 17.19596 5.688889 25.341414 4.913131 8.016162 11.507071 14.480808 18.876768 18.230303 7.369697 3.361616 15.773737 5.171717 24.048485 4.266667l2.327272-0.387879c12.929293-1.422222 25.987879-0.646465 37.624243 2.585859h0.258586c12.282828 2.973737 23.789899 8.533333 34.262626 16.420202 44.864646 32.064646 101.365657 49.907071 160.193939 50.553535s120.242424-14.868687 177.648485-47.838384c56.50101-32.840404 100.460606-78.351515 129.422222-129.292929v0.258586-0.258586z" fill="#1296db" p-id="2538"></path></svg>