<?xml version="1.0" standalone="no"?><!DOCTYPE svg PUBLIC "-//W3C//DTD SVG 1.1//EN" "http://www.w3.org/Graphics/SVG/1.1/DTD/svg11.dtd"><svg t="1718777700104" class="icon" viewBox="0 0 1024 1024" version="1.1" xmlns="http://www.w3.org/2000/svg" p-id="11163" xmlns:xlink="http://www.w3.org/1999/xlink" width="256" height="256"><path d="M582.4 927.1h-0.7c-6.8-0.3-12.3-5.5-13-12.3L506.5 326l-66.4 428.9c-1 6.5-6.5 11.4-13.2 11.6-6.4 0.6-12.4-4.3-13.9-10.8l-76.9-348.8-19.8 231c-0.6 6.5-5.7 11.8-12.2 12.5-6.5 0.6-12.6-3.3-14.6-9.5l-75.7-239.1-40.6 98.1c-2.1 5.1-7.1 8.5-12.7 8.5H23c-7.6 0-13.8-6.2-13.8-13.8 0-7.6 6.2-13.8 13.8-13.8h128.4l51.5-124.5c2.2-5.3 7.4-8.9 13.3-8.5 5.8 0.2 10.8 4.1 12.5 9.6l66.2 209.1 21.6-252c0.6-6.8 6-12.1 12.8-12.6 6.6-0.3 12.9 4.1 14.3 10.8L424.1 678l71.3-460.8c1-6.8 6.4-11.9 13.9-11.6 6.9 0.2 12.6 5.4 13.3 12.3l64 605 83.1-409.2C671 408 676 403.5 682 403c6.2-0.5 11.7 2.8 14 8.4l73.2 177.2 57-167.2c2-6 7.7-9.6 14.1-9.3 6.3 0.5 11.4 5.2 12.4 11.5l23.6 141.6 27.9-75.3c2-5.4 7.1-9 12.9-9h87.1c7.6 0 13.8 6.2 13.8 13.8 0 7.6-6.2 13.8-13.8 13.8h-77.5l-42.5 114.8c-2.2 5.8-8 9.7-14.2 8.9-6.2-0.6-11.2-5.3-12.3-11.4l-23.1-138.7L783.4 632c-1.8 5.4-6.9 9.1-12.6 9.3-5.5 0.8-10.9-3.2-13.1-8.5l-69.9-169.2L595.9 916c-1.3 6.5-7 11.1-13.5 11.1z" fill="#d81e06" p-id="11164"></path></svg>