<?xml version="1.0" standalone="no"?><!DOCTYPE svg PUBLIC "-//W3C//DTD SVG 1.1//EN" "http://www.w3.org/Graphics/SVG/1.1/DTD/svg11.dtd"><svg t="1718777765723" class="icon" viewBox="0 0 1024 1024" version="1.1" xmlns="http://www.w3.org/2000/svg" p-id="12273" xmlns:xlink="http://www.w3.org/1999/xlink" width="256" height="256"><path d="M318.8 108.1C542.9 1.6 810 96.9 916.4 319.1c106.4 222.2 13.1 491.2-211 597.6-222.2 104.6-489.3 11.2-597.6-211s-13.1-489.3 211-597.6z" fill="#FFA15E" p-id="12274"></path><path d="M610.1 556.3c43-31.7 110.2-56 108.3-130.7 0-134.5-140.1-155-186.8-44.8-29.9-71-95.2-87.8-140.1-57.9 37.4 18.7 61.6 50.4 61.6 87.8 0 41.1-29.9 78.4-72.8 93.4 22.4 20.5 50.4 35.5 74.7 52.3 43 28 72.8 67.2 76.6 84 5.7-15 39.3-56.1 78.5-84.1zM711 576.8c5.6-7.5 11.2-13.1 14.9-18.7 14.9-18.7 46.7-72.8 46.7-112.1-1.9-50.4-41.1-69.1-41.1-69.1l5.6 31.7s24.3 20.5 13.1 57.9c-11.2 39.2-35.5 72.8-54.2 97.1-1.9 0-5.6 1.9-7.5 1.9l-5.6 5.6c-3.7 3.7-3.7 7.5-3.7 9.3l-7.5 7.5c-11.2-1.9-43-5.6-82.2 22.4-48.6 37.4-41.1 95.2-35.5 100.8 5.6 5.6 56 11.2 108.3-28 39.2-31.7 28-78.4 28-78.4l-3.7-3.7c1.9-1.9 1.9-3.7 3.7-3.7l14.9 14.9c3.7 3.7 11.2 3.7 14.9 0l5.6-5.6c3.7-3.7 3.7-11.2 0-14.9L711 576.8zM326.3 406.9h-3.7l-37.4-28 33.6 33.6c0 3.7 3.7 9.3 9.3 9.3s9.3-3.7 9.3-9.3c0.1-5.6-5.5-5.6-11.1-5.6z m125.1 229.7c-3.7 7.5-11.2 41.1-56 39.2-50.4-1.9-44.8-72.8-44.8-72.8v-84h-3.7c11.2 0 20.5-9.3 20.5-20.5v-9.3c39.2-1.9 71-35.5 71-74.7 0-41.1-33.6-76.6-76.6-76.6h-33.6c-43 0-76.6 33.6-76.6 76.6 0 37.4 28 69.1 65.4 74.7v9.3c0 11.2 9.3 20.5 20.5 20.5h-3.7v84s-5.6 93.4 63.5 93.4c52.3 0 71-37.4 72.8-52.3 3.7-14.9 5.6-50.4 5.6-50.4l-16.8-11.2c-1.9-1.9-5.6 46.6-7.5 54.1zM326.3 476c-33.6 0-61.6-28-61.6-61.6s28-61.6 61.6-61.6 61.6 28 61.6 61.6-28 61.6-61.6 61.6z" fill="#FFFFFF" p-id="12275"></path></svg>