<?xml version="1.0" standalone="no"?><!DOCTYPE svg PUBLIC "-//W3C//DTD SVG 1.1//EN" "http://www.w3.org/Graphics/SVG/1.1/DTD/svg11.dtd"><svg t="1718937100349" class="icon" viewBox="0 0 1024 1024" version="1.1" xmlns="http://www.w3.org/2000/svg" p-id="4614" xmlns:xlink="http://www.w3.org/1999/xlink" width="256" height="256"><path d="M662 565.2H552.9v-109c0-22.5-18.4-40.9-40.9-40.9s-40.9 18.4-40.9 40.9v109.1H362c-22.5 0-40.9 18.4-40.9 40.9s18.4 40.9 40.9 40.9h109.1v109.1c0 22.5 18.4 40.9 40.9 40.9s40.9-18.4 40.9-40.9V647.1H662c22.5 0 40.9-18.4 40.9-40.9s-18.4-41-40.9-41z" fill="#FFFF27" p-id="4615"></path><path d="M512 810.7c-30.1 0-54.5-24.5-54.5-54.5v-95.5H362c-30.1 0-54.5-24.5-54.5-54.5s24.5-54.5 54.5-54.5h95.5v-95.5c0-30.1 24.5-54.5 54.5-54.5 30.1 0 54.5 24.5 54.5 54.5v95.5H662c30.1 0 54.5 24.5 54.5 54.5S692 660.7 662 660.7h-95.5v95.5c0 30-24.4 54.5-54.5 54.5zM362 578.9c-15 0-27.3 12.2-27.3 27.3s12.2 27.3 27.3 27.3h109.1c7.5 0 13.6 6.1 13.6 13.6v109.1c0 15 12.2 27.3 27.3 27.3 15 0 27.3-12.2 27.3-27.3V647.1c0-7.5 6.1-13.6 13.6-13.6H662c15 0 27.3-12.2 27.3-27.3S677 578.9 662 578.9H552.9c-7.5 0-13.6-6.1-13.6-13.6V456.2c0-15-12.2-27.3-27.3-27.3-15 0-27.3 12.2-27.3 27.3v109.1c0 7.5-6.1 13.6-13.6 13.6H362z" fill="#41B3F9" p-id="4616"></path><path d="M880.2 937.9H143.8c-45.1 0-81.8-36.7-81.8-81.8V356.2c0-45.1 36.7-81.8 81.8-81.8h736.4c45.1 0 81.8 36.7 81.8 81.8V856c0 45.2-36.7 81.9-81.8 81.9zM143.8 301.7c-30.1 0-54.5 24.5-54.5 54.5V856c0 30.1 24.5 54.5 54.5 54.5h736.4c30.1 0 54.5-24.5 54.5-54.5V356.2c0-30.1-24.5-54.5-54.5-54.5H143.8z" fill="#41B3F9" p-id="4617"></path><path d="M721 301.7H303c-7.5 0-13.6-6.1-13.6-13.6V172.5c0-47.6 38.7-86.4 86.4-86.4h272.5c47.6 0 86.4 38.7 86.4 86.4v115.6c-0.1 7.5-6.2 13.6-13.7 13.6z m-404.3-27.3h390.7V172.5c0-32.6-26.5-59.1-59.1-59.1H375.7c-32.6 0-59.1 26.5-59.1 59.1v101.9z" fill="#41B3F9" p-id="4618"></path><path d="M246.7 299.9h-58.4c-7.5 0-13.6-6.1-13.6-13.6v-20.4c0-7.5 6.1-13.6 13.6-13.6h58.4c7.5 0 13.6 6.1 13.6 13.6v20.4c0 7.5-6.1 13.6-13.6 13.6zM835.8 299.9h-58.4c-7.5 0-13.6-6.1-13.6-13.6v-20.4c0-7.5 6.1-13.6 13.6-13.6h58.4c7.5 0 13.6 6.1 13.6 13.6v20.4c0 7.5-6.1 13.6-13.6 13.6z" fill="#41B3F9" p-id="4619"></path></svg>