<?xml version="1.0" standalone="no"?><!DOCTYPE svg PUBLIC "-//W3C//DTD SVG 1.1//EN" "http://www.w3.org/Graphics/SVG/1.1/DTD/svg11.dtd"><svg t="1713859164039" class="icon" viewBox="0 0 1024 1024" version="1.1" xmlns="http://www.w3.org/2000/svg" p-id="32399" xmlns:xlink="http://www.w3.org/1999/xlink" width="200" height="200"><path d="M408 350c0-9.941-8.059-18-18-18s-18 8.059-18 18v246h-0.098c-1.274 16.229-14.847 29-31.402 29h-3c-17.397 0-31.5-14.103-31.5-31.5V254c0-28.167 22.833-51 51-51h310c28.167 0 51 22.833 51 51v339.5c0 17.397-14.103 31.5-31.5 31.5-16.555 0-30.128-12.771-31.402-29H655V350c0-9.83-7.88-17.82-17.67-17.997L637 332c-9.941 0-18 8.059-18 18v601.5c0 26.234-21.266 47.5-47.5 47.5S524 977.734 524 951.5V596h-21v355.5c0 26.234-21.266 47.5-47.5 47.5S408 977.734 408 951.5zM512.5 25c44.459 0 80.5 36.041 80.5 80.5S556.959 186 512.5 186 432 149.959 432 105.5 468.041 25 512.5 25z" fill="#8a8a8a" p-id="32400"></path></svg>